<?xml version="1.0" encoding="utf-8"?>
<!-- Generator: Adobe Illustrator 19.1.0, SVG Export Plug-In . SVG Version: 6.00 Build 0)  -->
<svg version="1.1" id="Layer_1" xmlns="http://www.w3.org/2000/svg" xmlns:xlink="http://www.w3.org/1999/xlink" x="0px" y="0px"
	 width="300px" height="237px" viewBox="130 -25 300 237" style="enable-background:new 130 -25 300 237;" xml:space="preserve">
<style type="text/css">
	.st0{fill:#FFFFFF;}
</style>
<g id="XMLID_30_">
	<g id="XMLID_2_">
		<path id="XMLID_3_" class="st0" d="M158.1,30.4c0.3,0,1.1,0.1,1.7-0.4c0.6-0.5,1.1-1.5,1.1-3.6s-0.5-3.2-1.1-3.6
			c-0.6-0.5-1.4-0.4-1.7-0.4V30.4z M158.1,18.8c0.3,0,1.1,0,1.7-0.4c0.6-0.4,1.1-1.3,1.1-3.1s-0.5-2.7-1.1-3.1
			c-0.6-0.4-1.4-0.4-1.7-0.4V18.8z M154.2,34.3V8h3.4c2.3,0,4.1,0.4,5.2,1.5c1.2,1.1,1.8,2.8,1.8,5.4c0,1.2-0.1,2.2-0.5,3
			c-0.4,0.9-1,1.6-1.9,2.4c1,0.5,1.7,1.5,2.2,3.2c0.3,0.8,0.4,1.9,0.4,3.2c0,2-0.4,3.7-1.2,5.1c-0.9,1.4-2.4,2.2-4.7,2.4L154.2,34.3
			L154.2,34.3z"/>
	</g>
	<path id="XMLID_7_" class="st0" d="M176.3,16.5l-0.1-0.7H176l-0.1,0.7l-1.1,8.3h2.6L176.3,16.5z M169.7,34.3l4-26.2h4.7l4,26.2
		h-3.7l-0.7-5.4h-3.7l-0.7,5.4H169.7z"/>
	<polygon id="XMLID_10_" class="st0" points="187.7,8 191.6,8 191.6,30.7 196.7,30.7 196.7,34.3 187.7,34.3 	"/>
	<g id="XMLID_11_">
		<path id="XMLID_12_" class="st0" d="M208.2,15c0-0.9,0-1.8-0.3-2.6c-0.2-0.7-0.6-1.2-1.2-1.2c-1,0-1.3,1.1-1.3,2.6
			c0,0.9,0.4,1.8,1,2.8s1.3,2,2.1,3.1c0.9,1.3,1.8,2.7,2.5,4c0.7,1.3,1.1,2.7,1.1,4.1c0,1.7-0.3,3.4-1.1,4.6c-0.8,1.2-2.1,2-4.2,2
			c-2.5,0-3.9-0.9-4.6-2.4c-0.8-1.4-1-3.3-1-5.3l3.8-0.4c0,1.1,0,2.2,0.3,3c0.2,0.9,0.7,1.4,1.5,1.4c1.1,0,1.6-1.2,1.6-2.9
			c0-0.9-0.4-1.9-1-2.9c-0.3-0.5-0.6-1-1-1.6c-0.8-1.1-1.6-2.3-2.4-3.6c-0.9-1.3-1.5-2.7-1.9-4.1c-0.2-0.7-0.3-1.4-0.3-2.1
			c0-1.4,0.3-3,1.1-4.1c0.8-1.1,2.1-2,3.9-2c2.3,0,3.7,0.9,4.4,2.3c0.8,1.4,1,3.2,1,4.6L208.2,15z"/>
	</g>
	<path id="XMLID_13_" class="st0" d="M223.1,16.5l-0.1-0.6h-0.2l-0.1,0.7l-1.1,8.3h2.6L223.1,16.5z M216.6,34.3l4-26.2h4.7l4,26.2
		h-3.7l-0.7-5.4h-3.7l-0.7,5.4H216.6z"/>
</g>
<g id="XMLID_1_">
	<path id="XMLID_16_" class="st0" d="M326.3,25.3v3.6c0,1.1-0.3,2-0.6,2.9c-0.3,0.7-0.8,1.4-1.5,1.9c-0.7,0.6-1.7,0.9-3,0.9
		c-1.3,0-2.3-0.3-3-0.9c-0.7-0.5-1.2-1.2-1.5-1.9c-0.4-0.8-0.6-1.8-0.6-2.9V13.4c0-1,0.2-2,0.6-2.8c0.3-0.7,0.8-1.4,1.5-2
		c0.7-0.5,1.7-0.9,3-0.9c1.3,0,2.2,0.4,3,0.9c0.7,0.5,1.2,1.3,1.5,2c0.4,0.8,0.6,1.8,0.6,2.8V17h-3.6v-3.6c0-0.7-0.2-1.2-0.6-1.6
		c-0.2-0.2-0.5-0.3-0.9-0.3c-0.7,0-1,0.5-1.2,1c-0.1,0.3-0.1,0.6-0.2,1V29c0,0.8,0.3,1.2,0.6,1.6c0.2,0.2,0.4,0.3,0.8,0.3
		c0.8,0,1.1-0.4,1.3-1c0.1-0.3,0.1-0.6,0.1-1v-3.6C322.6,25.3,326.3,25.3,326.3,25.3z"/>
</g>
<polygon id="XMLID_17_" class="st0" points="332.2,8 341.1,8 341.1,12 336.1,12 336.1,18.9 339.7,18.9 339.7,23.1 336.1,23.1 
	336.1,30.3 341.1,30.3 341.1,34.3 332.2,34.3 "/>
<polygon id="XMLID_18_" class="st0" points="350.8,20.6 350.5,19.4 350.3,19.4 350.3,34.3 346.8,34.3 346.8,8 350.2,8 353.9,21.7 
	354.3,22.9 354.5,22.9 354.5,8 358,8 358,34.3 354.6,34.3 "/>
<polygon id="XMLID_19_" class="st0" points="363.1,12 363.1,8 374.2,8 374.2,12 370.6,12 370.6,34.3 366.7,34.3 366.7,12 "/>
<g id="XMLID_20_">
	<path id="XMLID_21_" class="st0" d="M383.2,19.6c0.5,0,1.2-0.1,1.8-0.6s1-1.5,1-3.3s-0.5-2.9-1-3.4c-0.6-0.5-1.3-0.5-1.8-0.5V19.6z
		 M386.2,34.3l-2-11.1h-1v11.1h-3.9V8h3.9c4.6,0,6.6,2.6,6.6,7.6c0,2.6-0.7,5-2.1,6l2.5,12.7H386.2z"/>
</g>
<path id="XMLID_24_" class="st0" d="M401.2,16.5l-0.1-0.7h-0.2l-0.1,0.7l-1.1,8.3h2.6L401.2,16.5z M394.7,34.3l4-26.2h4.7l4,26.2
	h-3.7l-0.7-5.4h-3.7l-0.7,5.4H394.7z"/>
<polygon id="XMLID_27_" class="st0" points="412.7,8 416.6,8 416.6,30.7 421.7,30.7 421.7,34.3 412.7,34.3 "/>
<g id="XMLID_28_">
	<path id="XMLID_29_" class="st0" d="M275.8-5.5c-1.3,0-2.5,0.1-3.7,0.3c3.6,0.4,6.6,1.6,8.8,3.2c11.1,2.4,19.4,12.2,19.4,24
		c0,2.8-0.5,5.6-1.4,8.1c0.9,0.2,1.9,0.6,2.7,1.2c1.1-2.9,1.6-6,1.6-9.3C303.2,6.8,290.9-5.5,275.8-5.5"/>
	<path id="XMLID_31_" class="st0" d="M251.2,21.9c0-1.7,0.2-3.3,0.5-4.9c-0.8-1.2-1.5-2.7-1.8-4.2c-1,2.8-1.6,5.9-1.6,9.1
		c0,15.1,12.3,27.4,27.4,27.4c0.7,0,1.4,0,2.1-0.1c-1.9-0.7-3.7-1.7-5.1-3C260.7,44.8,251.2,34.5,251.2,21.9"/>
	<path id="XMLID_32_" class="st0" d="M270.5,10.6c-0.9,0-1.7-0.1-2.5-0.3l2.5-8.2c3.4,0.5,5.2,2,5.2,4.2
		C275.7,6.8,275.6,10.6,270.5,10.6 M268.9,24.3c-2,0-3.7-0.6-4.7-1.6l2.7-8.8c1.9,0.5,3.5,0.8,5.1,0.8c2.1,1.1,2.8,3,2.8,4.4
		C274.8,21.6,272.7,24.3,268.9,24.3 M300.3,34c-0.4-0.5-1.6-1.2-2.5-1.2h-0.1h-0.2l-0.1,0.3c-2.6,5.4-7.3,8.7-12.1,8.7
		c-4.7,0-7.6-3.3-7.6-8.5c0-6.4,4.5-12.1,9.7-12.1c1.5,0,2.6,0.5,3,1.4c-1.1,0.7-1.8,1.8-1.8,3.2c0,2.1,1.7,3.7,3.7,3.7
		c3,0,4.5-2.8,4.5-5.5c0-4.1-3.4-8.3-10-8.3c-2.2,0-4.3,0.5-6.1,1.3c-0.6-1.4-1.6-2.6-2.9-3.5c2.9-1.5,4.5-4,4.5-7.1
		c0-4.6-4-7.8-10.3-8.7c-1.2-0.2-2.4-0.3-3.7-0.3c-2.3,0-4.6,0.3-6.8,1c-4.4,1.4-8.1,4.3-9,8.8c-0.1,0.7-0.2,1.4-0.2,2.2
		c0,1.2,0.2,2.4,0.6,3.5c0.4,1.3,1.1,2.5,2,3.5l0.3,0.3l4.6-3.7l-0.2-0.4c-0.7-1.1-1-2.5-1-3.8c0-1.5,0.5-5.1,5.2-6.5l-7.3,24h5.4
		c2.2,2.2,5.3,3.3,8.7,3.3c0.1,0,0.3,0,0.4,0c-0.3,1.4-0.4,2.7-0.4,4.1c0,6.1,2.9,10.6,7.7,12.5c1.5,0.6,3.2,0.9,5.1,0.9
		c1.4,0,2.8-0.2,4-0.5c7.1-1.8,11.1-8.2,13-12.2l0.1-0.3L300.3,34L300.3,34z"/>
	<path id="XMLID_36_" class="st0" d="M252.8,0.1H131.7v-2.2h124.6c0,0-1,0.5-2,1.1C253.4-0.4,252.8,0.1,252.8,0.1"/>
</g>
<rect id="XMLID_37_" x="288.8" y="-2.1" class="st0" width="139.9" height="2.2"/>
<rect id="XMLID_38_" x="131.7" y="42.1" class="st0" width="128.8" height="2.2"/>
<path id="XMLID_39_" class="st0" d="M428.9,44.4H297c0,0,0.5-0.4,1.2-1.2c0.5-0.5,0.9-1.1,0.9-1.1h129.8V44.4z"/>
<g id="XMLID_40_">
	<path id="XMLID_41_" class="st0" d="M267-14.5c1-0.2,2-0.3,3-0.4c0,0.3,0.1,0.7,0.1,1c-1,0.1-2,0.2-2.9,0.4
		C267.1-13.9,267.1-14.2,267-14.5"/>
	<path id="XMLID_42_" class="st0" d="M248.7-13.8c1-0.7,1.9-1.3,2.9-1.9c0.2,0.3,0.4,0.7,0.6,1c-0.5,0.3-1.1,0.7-1.6,1
		c0.4,0.6,0.8,1.1,1.1,1.7c0.4-0.2,0.7-0.5,1.1-0.7c0.2,0.4,0.4,0.7,0.7,1.1c-0.4,0.2-0.7,0.5-1.1,0.7c0.4,0.6,0.8,1.2,1.2,1.8
		c0.5-0.3,0.9-0.6,1.4-0.9c0.2,0.3,0.4,0.7,0.6,1c-0.8,0.5-1.6,1-2.4,1.6C251.7-9.6,250.2-11.7,248.7-13.8"/>
	<path id="XMLID_43_" class="st0" d="M257-16.2c-0.1-0.2-0.2-0.5-0.4-0.6c-0.2-0.2-0.4-0.3-0.6-0.2c-0.3,0.2-0.3,0.5-0.1,0.9
		c0.1,0.2,0.4,0.4,0.7,0.6c0.3,0.2,0.7,0.3,1.1,0.5c0.5,0.2,0.9,0.5,1.3,0.7c0.4,0.3,0.7,0.6,0.8,1c0.2,0.5,0.3,1,0.2,1.4
		s-0.4,0.8-1,1.1c-0.7,0.3-1.2,0.3-1.6,0s-0.7-0.7-1-1.2c0.4-0.2,0.7-0.5,1.1-0.7c0.1,0.3,0.3,0.6,0.5,0.8s0.4,0.3,0.6,0.2
		c0.3-0.2,0.3-0.5,0.1-1c-0.1-0.2-0.4-0.4-0.7-0.6c-0.2-0.1-0.3-0.2-0.5-0.3c-0.4-0.2-0.8-0.4-1.2-0.6c-0.4-0.2-0.8-0.5-1.2-0.8
		c-0.2-0.1-0.3-0.3-0.4-0.5c-0.2-0.4-0.3-0.8-0.2-1.3c0.1-0.4,0.5-0.9,1.1-1.2c0.8-0.4,1.4-0.3,1.8-0.1c0.4,0.3,0.7,0.7,0.9,1.1
		C257.8-16.7,257.4-16.5,257-16.2"/>
	<path id="XMLID_44_" class="st0" d="M259.9-18.3c-0.1-0.4-0.3-0.7-0.4-1.1c1.4-0.5,2.7-0.9,4.1-1.2c0.1,0.4,0.2,0.8,0.3,1.1
		c-0.4,0.1-0.9,0.2-1.3,0.3c0.6,2.1,1.1,4.2,1.7,6.3c-0.4,0.1-0.8,0.2-1.2,0.3c-0.6-2.1-1.3-4.2-1.9-6.3
		C260.7-18.6,260.3-18.5,259.9-18.3"/>
	<path id="XMLID_45_" class="st0" d="M267.9-17c0.4-0.1,0.7-0.1,0.8-0.4c0-0.2,0.1-0.4,0-0.7c0-0.3,0-0.3-0.1-0.8
		c-0.1-0.5-0.1-0.5-0.1-0.7c0-0.3-0.1-0.5-0.2-0.6c-0.2-0.3-0.5-0.3-1-0.2C267.6-19.3,267.8-18.1,267.9-17 M266.8-15.9
		c-0.3-1.8-0.6-3.5-0.9-5.3c0.4-0.1,0.8-0.1,1.1-0.2c1.4-0.2,2.1-0.1,2.5,0.3c0.4,0.4,0.5,0.8,0.6,2c0.1,1.2,0.1,1.6-0.2,2.1
		s-0.9,0.7-2.1,0.9C267.4-16,267.1-15.9,266.8-15.9"/>
	<path id="XMLID_48_" class="st0" d="M275.4-19.2c0-0.2,0-0.4,0-0.5c0-0.5,0.2-1,0.5-1.4c0.3-0.3,0.8-0.6,1.6-0.5
		c0.7,0.1,1.2,0.4,1.5,0.8c0.2,0.4,0.3,0.9,0.2,1.4c-0.1,0.8-0.6,1.6-1.2,2.5c-0.6,0.8-1.1,1.5-1.5,2c0.7,0.1,1.3,0.2,1.9,0.3
		c-0.1,0.4-0.1,0.7-0.2,1.1c-1.1-0.2-2.2-0.3-3.2-0.4c0-0.4,0-0.7,0.1-1.1c0.4-0.5,0.8-1,1.2-1.5c0.3-0.4,0.6-0.9,0.9-1.4
		s0.5-1,0.6-1.5c0-0.2,0-0.4,0-0.6c0-0.2-0.1-0.3-0.4-0.4c-0.2,0-0.3,0.1-0.4,0.2c-0.1,0.2-0.1,0.4-0.2,0.7c0,0.2,0,0.4-0.1,0.5
		C276.4-19.1,275.9-19.2,275.4-19.2"/>
	<path id="XMLID_49_" class="st0" d="M283.9-18.6c0.1-0.2,0-0.4,0-0.5s-0.1-0.1-0.3-0.2c-0.2-0.1-0.4,0-0.5,0.2c0,0-0.1,0.1-0.1,0.2
		c-0.4,1.5-0.8,2.9-1.1,4.4c-0.1,0.2,0,0.4,0,0.5s0.1,0.1,0.2,0.1c0.2,0.1,0.3,0,0.4-0.2c0.1-0.1,0.1-0.1,0.1-0.3
		C283.1-15.7,283.5-17.2,283.9-18.6 M283.9-13.9c-0.1,0.3-0.3,0.5-0.5,0.7s-0.4,0.3-0.6,0.4c-0.3,0.1-0.6,0.1-1,0s-0.7-0.3-0.8-0.5
		c-0.2-0.2-0.3-0.4-0.3-0.7c-0.1-0.3-0.1-0.6,0-0.9c0.3-1.5,0.7-3,1-4.4c0.1-0.3,0.2-0.6,0.4-0.8c0.2-0.2,0.4-0.3,0.7-0.4
		c0.3-0.1,0.7-0.1,1.2,0s0.8,0.3,1,0.6c0.2,0.2,0.3,0.5,0.4,0.7c0.1,0.3,0.1,0.6,0,0.9C284.8-16.8,284.4-15.3,283.9-13.9"/>
	<path id="XMLID_52_" class="st0" d="M289.8-16.4c0.1-0.2,0.1-0.3,0-0.5c0-0.1-0.1-0.1-0.2-0.2c-0.2-0.1-0.4,0-0.5,0.1
		c-0.1,0.1-0.1,0.1-0.2,0.2c-0.6,1.4-1.2,2.8-1.8,4.2c-0.1,0.2-0.1,0.4,0,0.5c0,0.1,0.1,0.1,0.2,0.2c0.2,0.1,0.4,0,0.5-0.1
		c0.1-0.1,0.1-0.1,0.2-0.2C288.5-13.7,289.1-15.1,289.8-16.4 M289-11.8c-0.2,0.3-0.3,0.5-0.6,0.7c-0.2,0.1-0.4,0.2-0.7,0.3
		c-0.3,0.1-0.6,0-1-0.2c-0.4-0.2-0.6-0.4-0.8-0.6c-0.1-0.2-0.2-0.5-0.2-0.7c0-0.3,0-0.6,0.1-0.9c0.6-1.4,1.1-2.8,1.7-4.2
		c0.1-0.3,0.3-0.5,0.5-0.7c0.2-0.2,0.4-0.3,0.8-0.3c0.3,0,0.7,0,1.2,0.2c0.5,0.2,0.8,0.5,0.9,0.7c0.2,0.3,0.3,0.5,0.3,0.8
		c0,0.3,0,0.6-0.2,0.9C290.4-14.5,289.7-13.1,289-11.8"/>
	<path id="XMLID_55_" class="st0" d="M291.8-9.8c-0.1,0.1-0.1,0.3,0.1,0.5c0.2,0.2,0.5,0,0.5-0.1c0.4-0.6,0.9-1.3,1.3-1.9
		c0.1-0.1,0.1-0.4-0.2-0.5c-0.3-0.2-0.5-0.1-0.5,0C292.7-11.1,292.2-10.4,291.8-9.8 M293.8-8.8c-0.1,0.1-0.4,0.5-0.8,0.6
		c-0.4,0.2-0.9,0.2-1.6-0.2c-0.6-0.4-0.8-0.9-0.8-1.3c0-0.4,0.2-0.8,0.3-1c0.7-1.3,1.5-2.5,2.2-3.8c0.1-0.2,0.4-0.6,0.8-0.8
		s1-0.2,1.8,0.3c0.8,0.5,1,1.1,1,1.6s-0.3,0.9-0.4,1.1c-0.1,0.1-0.2,0.3-0.3,0.4c-0.4-0.3-0.8-0.6-1.2-0.8c0.3-0.4,0.5-0.7,0.5-0.9
		c0.1-0.2,0-0.3-0.2-0.4c-0.2-0.1-0.3-0.1-0.4,0c-0.1,0.1-0.3,0.2-0.4,0.5c-0.2,0.4-0.5,0.8-0.7,1.2c0.3,0,0.5,0.1,0.7,0.2
		c0.6,0.4,0.8,0.9,0.7,1.3c0,0.4-0.3,0.8-0.4,0.9C294.4-9.7,294.1-9.3,293.8-8.8"/>
</g>
<g id="XMLID_58_">
	<path id="XMLID_59_" class="st0" d="M324.2,55.3c0.4,0,0.6-0.1,0.8-0.3c0.1-0.2,0.2-0.5,0.2-1s0-0.8-0.2-1
		c-0.1-0.2-0.4-0.3-0.8-0.3V55.3z M322.9,51.4h1.3c0.5,0,1.1,0.1,1.5,0.5c0.4,0.4,0.7,1,0.7,2s-0.3,1.6-0.7,2
		c-0.4,0.4-1,0.6-1.5,0.6V60h-1.3V51.4z"/>
	<polygon id="XMLID_62_" class="st0" points="328.3,51.4 328.3,60 331.3,60 331.3,58.8 329.6,58.8 329.6,51.4 	"/>
	<path id="XMLID_63_" class="st0" d="M334.9,54.2V54h0.1v0.2l0.4,2.7h-0.9L334.9,54.2z M334.2,51.4l-1.3,8.5h1.2l0.2-1.7h1.2
		l0.2,1.7h1.2l-1.3-8.5H334.2z"/>
	<polygon id="XMLID_66_" class="st0" points="341.5,51.4 341.5,56.3 341.4,56.3 341.3,55.9 340.1,51.4 339,51.4 339,60 340.1,60 
		340.1,55.1 340.2,55.1 340.3,55.5 341.5,60 342.6,60 342.6,51.4 	"/>
	<polygon id="XMLID_67_" class="st0" points="344.5,51.4 344.5,52.7 345.7,52.7 345.7,60 346.9,60 346.9,52.7 348.1,52.7 
		348.1,51.4 	"/>
	<path id="XMLID_68_" class="st0" d="M351.3,54.2V54h0.1v0.2l0.4,2.7h-0.9L351.3,54.2z M350.6,51.4l-1.3,8.5h1.2l0.2-1.7h1.2
		l0.2,1.7h1.2l-1.3-8.5H350.6z"/>
	<polygon id="XMLID_71_" class="st0" points="354.5,51.4 354.5,52.7 355.7,52.7 355.7,60 357,60 357,52.7 358.2,52.7 358.2,51.4 	
		"/>
	<rect id="XMLID_72_" x="360" y="51.4" class="st0" width="1.3" height="8.5"/>
	<g id="XMLID_73_">
		<path id="XMLID_74_" class="st0" d="M365.4,53.2c0-0.2,0-0.4-0.2-0.5c-0.1-0.1-0.2-0.1-0.3-0.1c-0.2,0-0.3,0.2-0.4,0.3
			c0,0.1,0,0.2,0,0.3v5c0,0.2,0.1,0.4,0.2,0.5c0.1,0.1,0.1,0.1,0.2,0.1c0.2,0,0.3-0.1,0.4-0.3c0-0.1,0-0.2,0-0.3v-5H365.4z
			 M366.7,58.2c0,0.3-0.1,0.7-0.2,0.9c-0.1,0.2-0.3,0.5-0.5,0.6c-0.2,0.2-0.5,0.3-1,0.3c-0.4,0-0.7-0.1-1-0.3
			c-0.2-0.2-0.4-0.4-0.5-0.6c-0.1-0.3-0.2-0.6-0.2-0.9v-5c0-0.3,0.1-0.7,0.2-0.9c0.1-0.2,0.3-0.5,0.5-0.6c0.2-0.2,0.6-0.3,1-0.3
			s0.7,0.1,1,0.3c0.2,0.2,0.4,0.4,0.5,0.6c0.1,0.3,0.2,0.6,0.2,0.9V58.2z"/>
	</g>
	<polygon id="XMLID_77_" class="st0" points="371.3,51.4 371.3,56.3 371.2,56.3 371.1,55.9 369.9,51.4 368.7,51.4 368.7,60 
		369.9,60 369.9,55.1 370,55.1 370.1,55.5 371.3,60 372.4,60 372.4,51.4 	"/>
	<g id="XMLID_78_">
		<path id="XMLID_79_" class="st0" d="M379.5,54.5v-1.3c0-0.2,0-0.4-0.2-0.5c-0.1-0.1-0.2-0.1-0.3-0.1c-0.2,0-0.3,0.2-0.4,0.3
			c0,0.1,0,0.2,0,0.3v5.1c0,0.2,0.1,0.4,0.2,0.5c0.1,0.1,0.1,0.1,0.2,0.1c0.2,0,0.3-0.1,0.4-0.3c0-0.1,0-0.2,0-0.3v-1.5H379v-1.1
			h1.8V60H380l-0.2-0.4c-0.2,0.3-0.6,0.5-1,0.5c-0.4,0-0.7-0.1-0.9-0.3c-0.2-0.2-0.3-0.4-0.4-0.6c-0.1-0.3-0.2-0.6-0.1-0.9v-5
			c0-0.3,0.1-0.7,0.2-0.9c0.1-0.2,0.3-0.5,0.5-0.6c0.2-0.2,0.6-0.3,1-0.3s0.7,0.1,1,0.3c0.2,0.2,0.4,0.4,0.5,0.6
			c0.1,0.3,0.2,0.6,0.2,0.9v1.3L379.5,54.5L379.5,54.5z"/>
		<path id="XMLID_80_" class="st0" d="M384.1,55.2c0.2,0,0.4,0,0.6-0.2s0.3-0.5,0.3-1.1s-0.2-0.9-0.3-1.1c-0.2-0.2-0.4-0.2-0.6-0.2
			V55.2z M385.1,60l-0.7-3.6h-0.3V60h-1.3v-8.5h1.3c1.5,0,2.1,0.8,2.1,2.5c0,0.8-0.2,1.6-0.7,1.9l0.8,4.1H385.1z"/>
		<path id="XMLID_83_" class="st0" d="M390.3,53.2c0-0.2,0-0.4-0.2-0.5c-0.1-0.1-0.2-0.1-0.3-0.1c-0.2,0-0.3,0.2-0.4,0.3
			c0,0.1,0,0.2,0,0.3v5c0,0.2,0.1,0.4,0.2,0.5s0.1,0.1,0.2,0.1c0.2,0,0.3-0.1,0.4-0.3c0-0.1,0-0.2,0-0.3L390.3,53.2L390.3,53.2z
			 M391.5,58.2c0,0.3-0.1,0.7-0.2,0.9c-0.1,0.2-0.3,0.5-0.5,0.6c-0.2,0.2-0.5,0.3-1,0.3c-0.4,0-0.7-0.1-1-0.3
			c-0.2-0.2-0.4-0.4-0.5-0.6c-0.1-0.3-0.2-0.6-0.2-0.9v-5c0-0.3,0.1-0.7,0.2-0.9c0.1-0.2,0.3-0.5,0.5-0.6c0.2-0.2,0.6-0.3,1-0.3
			s0.7,0.1,1,0.3c0.2,0.2,0.4,0.4,0.5,0.6c0.1,0.3,0.2,0.6,0.2,0.9V58.2z"/>
	</g>
	<polygon id="XMLID_86_" class="st0" points="397.8,51.4 397.3,55.9 397.2,56.2 397.1,56.2 397.1,55.9 396.6,51.4 395.7,51.4 
		395.1,55.9 395.1,56.2 395,56.2 395,55.9 394.5,51.4 393.3,51.4 394.5,60 395.4,60 396,55.9 396.1,55.4 396.1,55.4 396.2,55.9 
		396.8,60 397.8,60 398.9,51.4 	"/>
	<polygon id="XMLID_87_" class="st0" points="403.3,51.4 403.3,56.3 403.3,56.3 403.2,55.9 402,51.4 400.8,51.4 400.8,60 402,60 
		402,55.1 402.1,55.1 402.2,55.5 403.4,60 404.5,60 404.5,51.4 	"/>
</g>
<g id="XMLID_88_">
	<path id="XMLID_89_" class="st0" d="M154,54.2V54h0.1v0.2l0.4,2.7h-0.9L154,54.2z M153.3,51.4L152,60h1.2l0.2-1.7h1.2l0.2,1.7h1.2
		l-1.3-8.5L153.3,51.4L153.3,51.4z"/>
	<g id="XMLID_92_">
		<path id="XMLID_93_" class="st0" d="M161.2,51.4v6.8c0,0.3-0.1,0.7-0.2,0.9c-0.1,0.2-0.3,0.5-0.5,0.6c-0.2,0.2-0.5,0.3-1,0.3
			c-0.4,0-0.7-0.1-1-0.3c-0.2-0.2-0.4-0.4-0.5-0.6c-0.1-0.3-0.2-0.6-0.2-0.9v-6.8h1.3v6.8c0,0.2,0.1,0.4,0.2,0.5
			c0.1,0.1,0.1,0.1,0.2,0.1c0.2,0,0.3-0.1,0.4-0.3c0-0.1,0-0.2,0-0.3v-6.8C159.9,51.4,161.2,51.4,161.2,51.4z"/>
		<path id="XMLID_94_" class="st0" d="M165.5,53.7c0-0.3,0-0.6-0.1-0.8c-0.1-0.2-0.2-0.4-0.4-0.4c-0.3,0-0.4,0.3-0.4,0.8
			c0,0.3,0.1,0.6,0.3,0.9c0.2,0.3,0.4,0.7,0.7,1c0.3,0.4,0.6,0.9,0.8,1.3c0.2,0.4,0.4,0.9,0.4,1.3c0,0.6-0.1,1.1-0.4,1.5
			c-0.3,0.4-0.7,0.7-1.4,0.7c-0.8,0-1.3-0.3-1.5-0.8c-0.3-0.5-0.3-1.1-0.3-1.7l1.2-0.1c0,0.4,0,0.7,0.1,1c0.1,0.3,0.2,0.5,0.5,0.5
			c0.4,0,0.5-0.4,0.5-0.9c0-0.3-0.1-0.6-0.3-0.9c-0.1-0.2-0.2-0.3-0.3-0.5c-0.2-0.3-0.5-0.7-0.8-1.2c-0.3-0.4-0.5-0.9-0.6-1.3
			c-0.1-0.2-0.1-0.5-0.1-0.7c0-0.5,0.1-1,0.4-1.3c0.3-0.4,0.7-0.6,1.3-0.7c0.8,0,1.2,0.3,1.4,0.8c0.2,0.5,0.3,1,0.3,1.5L165.5,53.7z
			"/>
	</g>
	<polygon id="XMLID_95_" class="st0" points="168.5,51.4 168.5,52.7 169.6,52.7 169.6,60 170.9,60 170.9,52.7 172.1,52.7 
		172.1,51.4 	"/>
	<g id="XMLID_96_">
		<path id="XMLID_97_" class="st0" d="M175.2,55.2c0.2,0,0.4,0,0.6-0.2s0.3-0.5,0.3-1.1s-0.2-0.9-0.3-1.1c-0.2-0.2-0.4-0.2-0.6-0.2
			V55.2z M176.2,60l-0.7-3.6h-0.3V60h-1.3v-8.5h1.3c1.5,0,2.1,0.8,2.1,2.5c0,0.8-0.2,1.6-0.7,1.9l0.8,4.1H176.2z"/>
	</g>
	<path id="XMLID_100_" class="st0" d="M181.2,54.2V54h0.1v0.2l0.4,2.7h-0.9L181.2,54.2z M180.5,51.4l-1.3,8.6h1.2l0.2-1.7h1.2
		L182,60h1.2l-1.2-8.6H180.5z"/>
	<polygon id="XMLID_103_" class="st0" points="185.2,51.4 185.2,60 188.2,60 188.2,58.8 186.5,58.8 186.5,51.4 	"/>
	<rect id="XMLID_104_" x="190" y="51.4" class="st0" width="1.3" height="8.5"/>
	<path id="XMLID_105_" class="st0" d="M195.2,54.2V54h0.1L195.2,54.2l0.5,2.7h-0.9L195.2,54.2z M194.5,51.4l-1.3,8.6h1.2l0.2-1.7
		h1.2L196,60h1.2l-1.2-8.6H194.5z"/>
	<polygon id="XMLID_108_" class="st0" points="201.7,51.4 201.7,56.3 201.7,56.3 201.5,55.9 200.3,51.4 199.2,51.4 199.2,60 
		200.4,60 200.4,55.1 200.4,55.1 200.5,55.5 201.8,60 202.9,60 202.9,51.4 	"/>
	<g id="XMLID_109_">
		<path id="XMLID_110_" class="st0" d="M209.9,53.2c0-0.2,0-0.4-0.2-0.5c-0.1-0.1-0.2-0.1-0.3-0.1c-0.2,0-0.3,0.2-0.4,0.3
			c0,0.1,0,0.2,0,0.3v5c0,0.2,0.1,0.4,0.2,0.5s0.1,0.1,0.2,0.1c0.2,0,0.3-0.1,0.4-0.3c0-0.1,0-0.2,0-0.3v-5H209.9z M211.2,58.2
			c0,0.3-0.1,0.7-0.2,0.9c-0.1,0.2-0.3,0.5-0.5,0.6c-0.2,0.2-0.5,0.3-1,0.3c-0.4,0-0.7-0.1-1-0.3c-0.2-0.2-0.4-0.4-0.5-0.6
			c-0.1-0.3-0.2-0.6-0.2-0.9v-5c0-0.3,0.1-0.7,0.2-0.9c0.1-0.2,0.3-0.5,0.5-0.6c0.2-0.2,0.6-0.3,1-0.3s0.7,0.1,1,0.3
			c0.2,0.2,0.4,0.4,0.5,0.6c0.1,0.3,0.2,0.6,0.2,0.9V58.2z"/>
	</g>
	<polygon id="XMLID_113_" class="st0" points="217.4,51.4 216.9,55.9 216.9,56.2 216.8,56.2 216.8,55.9 216.2,51.4 215.3,51.4 
		214.8,55.9 214.7,56.2 214.7,56.2 214.6,55.9 214.1,51.4 213,51.4 214.1,60 215.1,60 215.7,55.9 215.7,55.4 215.8,55.4 215.9,55.9 
		216.4,60 217.4,60 218.6,51.4 	"/>
	<polygon id="XMLID_114_" class="st0" points="223,51.4 223,56.3 222.9,56.3 222.8,55.9 221.6,51.4 220.5,51.4 220.5,60 221.6,60 
		221.6,55.1 221.7,55.1 221.8,55.5 223,60 224.2,60 224.2,51.4 	"/>
	<polygon id="XMLID_115_" class="st0" points="226.3,51.4 226.3,60 229.1,60 229.1,58.7 227.5,58.7 227.5,56.3 228.7,56.3 228.7,55 
		227.5,55 227.5,52.7 229.1,52.7 229.1,51.4 	"/>
	<g id="XMLID_116_">
		<path id="XMLID_117_" class="st0" d="M232.4,58.7c0.4,0,0.7,0,0.8-0.5c0.1-0.2,0.1-0.5,0.1-0.9s0-1,0-1.7s0-1.2,0-1.7
			c0-0.4-0.1-0.7-0.1-0.9c-0.1-0.4-0.4-0.5-0.8-0.5V58.7z M231.1,60v-8.5h1c1.2,0,1.8,0.2,2.1,0.9c0.3,0.7,0.4,1.7,0.4,3.4
			c0,1.7,0,2.7-0.4,3.4c-0.3,0.7-1,0.9-2.1,0.9h-1V60z"/>
	</g>
</g>
<g id="XMLID_139_">
	<g id="XMLID_145_">
		<path id="XMLID_146_" class="st0" d="M158.1,121.4c0.3,0,1.1,0.1,1.7-0.4c0.6-0.5,1.1-1.5,1.1-3.6s-0.5-3.2-1.1-3.6
			c-0.6-0.5-1.4-0.4-1.7-0.4V121.4z M158.1,109.8c0.3,0,1.1,0,1.7-0.4c0.6-0.4,1.1-1.3,1.1-3.1c0-1.8-0.5-2.7-1.1-3.1
			c-0.6-0.4-1.4-0.4-1.7-0.4V109.8z M154.2,125.3V99h3.4c2.3,0,4.1,0.4,5.2,1.5c1.2,1.1,1.8,2.8,1.8,5.4c0,1.2-0.1,2.2-0.5,3
			c-0.4,0.9-1,1.6-1.9,2.4c1,0.5,1.7,1.5,2.2,3.2c0.3,0.8,0.4,1.9,0.4,3.2c0,2-0.4,3.7-1.2,5.1c-0.9,1.4-2.4,2.2-4.7,2.4
			L154.2,125.3L154.2,125.3z"/>
	</g>
	<path id="XMLID_144_" class="st0" d="M176.3,107.5l-0.1-0.7H176l-0.1,0.7l-1.1,8.3h2.6L176.3,107.5z M169.7,125.3l4-26.2h4.7
		l4,26.2h-3.7l-0.7-5.4h-3.7l-0.7,5.4H169.7z"/>
	<polygon id="XMLID_143_" class="st0" points="187.7,99 191.6,99 191.6,121.7 196.7,121.7 196.7,125.3 187.7,125.3 	"/>
	<g id="XMLID_141_">
		<path id="XMLID_142_" class="st0" d="M208.2,106c0-0.9,0-1.8-0.3-2.6c-0.2-0.7-0.6-1.2-1.2-1.2c-1,0-1.3,1.1-1.3,2.6
			c0,0.9,0.4,1.8,1,2.8s1.3,2,2.1,3.1c0.9,1.3,1.8,2.7,2.5,4c0.7,1.3,1.1,2.7,1.1,4.1c0,1.7-0.3,3.4-1.1,4.6c-0.8,1.2-2.1,2-4.2,2
			c-2.5,0-3.9-0.9-4.6-2.4c-0.8-1.4-1-3.3-1-5.3l3.8-0.4c0,1.1,0,2.2,0.3,3c0.2,0.9,0.7,1.4,1.5,1.4c1.1,0,1.6-1.2,1.6-2.9
			c0-0.9-0.4-1.9-1-2.9c-0.3-0.5-0.6-1-1-1.6c-0.8-1.1-1.6-2.3-2.4-3.6c-0.9-1.3-1.5-2.7-1.9-4.1c-0.2-0.7-0.3-1.4-0.3-2.1
			c0-1.4,0.3-3,1.1-4.1c0.8-1.1,2.1-2,3.9-2c2.3,0,3.7,0.9,4.4,2.3c0.8,1.4,1,3.2,1,4.6L208.2,106z"/>
	</g>
	<path id="XMLID_140_" class="st0" d="M223.1,107.5l-0.1-0.6h-0.2l-0.1,0.7l-1.1,8.3h2.6L223.1,107.5z M216.6,125.3l4-26.2h4.7
		l4,26.2h-3.7l-0.7-5.4h-3.7l-0.7,5.4H216.6z"/>
</g>
<g id="XMLID_137_">
	<path id="XMLID_138_" class="st0" d="M326.3,116.3v3.6c0,1.1-0.3,2-0.6,2.9c-0.3,0.7-0.8,1.4-1.5,1.9c-0.7,0.6-1.7,0.9-3,0.9
		c-1.3,0-2.3-0.3-3-0.9c-0.7-0.5-1.2-1.2-1.5-1.9c-0.4-0.8-0.6-1.8-0.6-2.9v-15.5c0-1,0.2-2,0.6-2.8c0.3-0.7,0.8-1.4,1.5-2
		c0.7-0.5,1.7-0.9,3-0.9c1.3,0,2.2,0.4,3,0.9c0.7,0.5,1.2,1.3,1.5,2c0.4,0.8,0.6,1.8,0.6,2.8v3.6h-3.6v-3.6c0-0.7-0.2-1.2-0.6-1.6
		c-0.2-0.2-0.5-0.3-0.9-0.3c-0.7,0-1,0.5-1.2,1c-0.1,0.3-0.1,0.6-0.2,1V120c0,0.8,0.3,1.2,0.6,1.6c0.2,0.2,0.4,0.3,0.8,0.3
		c0.8,0,1.1-0.4,1.3-1c0.1-0.3,0.1-0.6,0.1-1v-3.6C322.6,116.3,326.3,116.3,326.3,116.3z"/>
</g>
<polygon id="XMLID_136_" class="st0" points="332.2,99 341.1,99 341.1,103 336.1,103 336.1,109.9 339.7,109.9 339.7,114.1 
	336.1,114.1 336.1,121.3 341.1,121.3 341.1,125.3 332.2,125.3 "/>
<polygon id="XMLID_135_" class="st0" points="350.8,111.6 350.5,110.4 350.3,110.4 350.3,125.3 346.8,125.3 346.8,99 350.2,99 
	353.9,112.7 354.3,113.9 354.5,113.9 354.5,99 358,99 358,125.3 354.6,125.3 "/>
<polygon id="XMLID_134_" class="st0" points="363.1,103 363.1,99 374.2,99 374.2,103 370.6,103 370.6,125.3 366.7,125.3 366.7,103 
	"/>
<g id="XMLID_132_">
	<path id="XMLID_133_" class="st0" d="M383.2,110.6c0.5,0,1.2-0.1,1.8-0.6s1-1.5,1-3.3c0-1.8-0.5-2.9-1-3.4
		c-0.6-0.5-1.3-0.5-1.8-0.5V110.6z M386.2,125.3l-2-11.1h-1v11.1h-3.9V99h3.9c4.6,0,6.6,2.6,6.6,7.6c0,2.6-0.7,5-2.1,6l2.5,12.7
		H386.2z"/>
</g>
<path id="XMLID_131_" class="st0" d="M401.2,107.5l-0.1-0.7h-0.2l-0.1,0.7l-1.1,8.3h2.6L401.2,107.5z M394.7,125.3l4-26.2h4.7
	l4,26.2h-3.7l-0.7-5.4h-3.7l-0.7,5.4H394.7z"/>
<polygon id="XMLID_130_" class="st0" points="412.7,99 416.6,99 416.6,121.7 421.7,121.7 421.7,125.3 412.7,125.3 "/>
<g id="XMLID_125_">
	<path id="XMLID_129_" class="st0" d="M275.8,85.5c-1.3,0-2.5,0.1-3.7,0.3c3.6,0.4,6.6,1.6,8.8,3.2c11.1,2.4,19.4,12.2,19.4,24
		c0,2.8-0.5,5.6-1.4,8.1c0.9,0.2,1.9,0.6,2.7,1.2c1.1-2.9,1.6-6,1.6-9.3C303.2,97.8,290.9,85.5,275.8,85.5"/>
	<path id="XMLID_128_" class="st0" d="M251.2,112.9c0-1.7,0.2-3.3,0.5-4.9c-0.8-1.2-1.5-2.7-1.8-4.2c-1,2.8-1.6,5.9-1.6,9.1
		c0,15.1,12.3,27.4,27.4,27.4c0.7,0,1.4,0,2.1-0.1c-1.9-0.7-3.7-1.7-5.1-3C260.7,135.8,251.2,125.5,251.2,112.9"/>
	<path id="XMLID_127_" class="st0" d="M270.5,101.6c-0.9,0-1.7-0.1-2.5-0.3l2.5-8.2c3.4,0.5,5.2,2,5.2,4.2
		C275.7,97.8,275.6,101.6,270.5,101.6 M268.9,115.3c-2,0-3.7-0.6-4.7-1.6l2.7-8.8c1.9,0.5,3.5,0.8,5.1,0.8c2.1,1.1,2.8,3,2.8,4.4
		C274.8,112.6,272.7,115.3,268.9,115.3 M300.3,125c-0.4-0.5-1.6-1.2-2.5-1.2h-0.1h-0.2l-0.1,0.3c-2.6,5.4-7.3,8.7-12.1,8.7
		c-4.7,0-7.6-3.3-7.6-8.5c0-6.4,4.5-12.1,9.7-12.1c1.5,0,2.6,0.5,3,1.4c-1.1,0.7-1.8,1.8-1.8,3.2c0,2.1,1.7,3.7,3.7,3.7
		c3,0,4.5-2.8,4.5-5.5c0-4.1-3.4-8.3-10-8.3c-2.2,0-4.3,0.5-6.1,1.3c-0.6-1.4-1.6-2.6-2.9-3.5c2.9-1.5,4.5-4,4.5-7.1
		c0-4.6-4-7.8-10.3-8.7c-1.2-0.2-2.4-0.3-3.7-0.3c-2.3,0-4.6,0.3-6.8,1c-4.4,1.4-8.1,4.3-9,8.8c-0.1,0.7-0.2,1.4-0.2,2.2
		c0,1.2,0.2,2.4,0.6,3.5c0.4,1.3,1.1,2.5,2,3.5l0.3,0.3l4.6-3.7l-0.2-0.4c-0.7-1.1-1-2.5-1-3.8c0-1.5,0.5-5.1,5.2-6.5l-7.3,24h5.4
		c2.2,2.2,5.3,3.3,8.7,3.3c0.1,0,0.3,0,0.4,0c-0.3,1.4-0.4,2.7-0.4,4.1c0,6.1,2.9,10.6,7.7,12.5c1.5,0.6,3.2,0.9,5.1,0.9
		c1.4,0,2.8-0.2,4-0.5c7.1-1.8,11.1-8.2,13-12.2l0.1-0.3L300.3,125L300.3,125z"/>
	<path id="XMLID_126_" class="st0" d="M252.8,91.1H131.7v-2.2h124.6c0,0-1,0.5-2,1.1C253.4,90.6,252.8,91.1,252.8,91.1"/>
</g>
<rect id="XMLID_124_" x="288.8" y="88.9" class="st0" width="139.9" height="2.2"/>
<rect id="XMLID_123_" x="131.7" y="133.1" class="st0" width="128.8" height="2.2"/>
<path id="XMLID_122_" class="st0" d="M428.9,135.4H297c0,0,0.5-0.4,1.2-1.2c0.5-0.5,0.9-1.1,0.9-1.1h129.8V135.4z"/>
<g id="XMLID_198_">
	<path id="XMLID_202_" class="st0" d="M275.8,154.5c-1.3,0-2.5,0.1-3.7,0.3c3.6,0.4,6.6,1.6,8.8,3.2c11.1,2.4,19.4,12.2,19.4,24
		c0,2.8-0.5,5.6-1.4,8.1c0.9,0.2,1.9,0.6,2.7,1.2c1.1-2.9,1.6-6,1.6-9.3C303.2,166.8,290.9,154.5,275.8,154.5"/>
	<path id="XMLID_201_" class="st0" d="M251.2,181.9c0-1.7,0.2-3.3,0.5-4.9c-0.8-1.2-1.5-2.7-1.8-4.2c-1,2.8-1.6,5.9-1.6,9.1
		c0,15.1,12.3,27.4,27.4,27.4c0.7,0,1.4,0,2.1-0.1c-1.9-0.7-3.7-1.7-5.1-3C260.7,204.8,251.2,194.5,251.2,181.9"/>
	<path id="XMLID_200_" class="st0" d="M270.5,170.6c-0.9,0-1.7-0.1-2.5-0.3l2.5-8.2c3.4,0.5,5.2,2,5.2,4.2
		C275.7,166.8,275.6,170.6,270.5,170.6 M268.9,184.3c-2,0-3.7-0.6-4.7-1.6l2.7-8.8c1.9,0.5,3.5,0.8,5.1,0.8c2.1,1.1,2.8,3,2.8,4.4
		C274.8,181.6,272.7,184.3,268.9,184.3 M300.3,194c-0.4-0.5-1.6-1.2-2.5-1.2h-0.1h-0.2l-0.1,0.3c-2.6,5.4-7.3,8.7-12.1,8.7
		c-4.7,0-7.6-3.3-7.6-8.5c0-6.4,4.5-12.1,9.7-12.1c1.5,0,2.6,0.5,3,1.4c-1.1,0.7-1.8,1.8-1.8,3.2c0,2.1,1.7,3.7,3.7,3.7
		c3,0,4.5-2.8,4.5-5.5c0-4.1-3.4-8.3-10-8.3c-2.2,0-4.3,0.5-6.1,1.3c-0.6-1.4-1.6-2.6-2.9-3.5c2.9-1.5,4.5-4,4.5-7.1
		c0-4.6-4-7.8-10.3-8.7c-1.2-0.2-2.4-0.3-3.7-0.3c-2.3,0-4.6,0.3-6.8,1c-4.4,1.4-8.1,4.3-9,8.8c-0.1,0.7-0.2,1.4-0.2,2.2
		c0,1.2,0.2,2.4,0.6,3.5c0.4,1.3,1.1,2.5,2,3.5l0.3,0.3l4.6-3.7l-0.2-0.4c-0.7-1.1-1-2.5-1-3.8c0-1.5,0.5-5.1,5.2-6.5l-7.3,24h5.4
		c2.2,2.2,5.3,3.3,8.7,3.3c0.1,0,0.3,0,0.4,0c-0.3,1.4-0.4,2.7-0.4,4.1c0,6.1,2.9,10.6,7.7,12.5c1.5,0.6,3.2,0.9,5.1,0.9
		c1.4,0,2.8-0.2,4-0.5c7.1-1.8,11.1-8.2,13-12.2l0.1-0.3L300.3,194L300.3,194z"/>
</g>
</svg>
