<?xml version="1.0" encoding="utf-8"?>
<!-- Generator: Adobe Illustrator 19.1.0, SVG Export Plug-In . SVG Version: 6.00 Build 0)  -->
<svg version="1.1" id="Layer_1" xmlns="http://www.w3.org/2000/svg" xmlns:xlink="http://www.w3.org/1999/xlink" x="0px" y="0px"
	 width="300px" height="90px" viewBox="0 0 300 90" style="enable-background:new 0 0 300 90;" xml:space="preserve">
<style type="text/css">
	.st0{fill:#FFFFFF;}
</style>
<g id="XMLID_30_">
	<g id="XMLID_2_">
		<path id="XMLID_3_" class="st0" d="M28.1,55.4c0.3,0,1.1,0.1,1.7-0.4c0.6-0.5,1.1-1.5,1.1-3.6c0-2.1-0.5-3.2-1.1-3.6
			c-0.6-0.5-1.4-0.4-1.7-0.4V55.4z M28.1,43.8c0.3,0,1.1,0,1.7-0.4c0.6-0.4,1.1-1.3,1.1-3.1c0-1.8-0.5-2.7-1.1-3.1
			c-0.6-0.4-1.4-0.4-1.7-0.4V43.8z M24.2,59.3V33h3.4c2.3,0,4.1,0.4,5.2,1.5c1.2,1.1,1.8,2.8,1.8,5.4c0,1.2-0.1,2.2-0.5,3
			c-0.4,0.9-1,1.6-1.9,2.4c1,0.5,1.7,1.5,2.2,3.2c0.3,0.8,0.4,1.9,0.4,3.2c0,2-0.4,3.7-1.2,5.1c-0.9,1.4-2.4,2.2-4.7,2.4H24.2z"/>
	</g>
	<path id="XMLID_7_" class="st0" d="M46.3,41.5l-0.1-0.7H46l-0.1,0.7l-1.1,8.3h2.6L46.3,41.5z M39.7,59.3l4-26.2h4.7l4,26.2h-3.7
		l-0.7-5.4h-3.7l-0.7,5.4H39.7z"/>
	<polygon id="XMLID_10_" class="st0" points="57.7,33 61.6,33 61.6,55.7 66.7,55.7 66.7,59.3 57.7,59.3 	"/>
	<g id="XMLID_11_">
		<path id="XMLID_12_" class="st0" d="M78.2,40c0-0.9,0-1.8-0.3-2.6c-0.2-0.7-0.6-1.2-1.2-1.2c-1,0-1.3,1.1-1.3,2.6
			c0,0.9,0.4,1.8,1,2.8c0.6,1,1.3,2,2.1,3.1c0.9,1.3,1.8,2.7,2.5,4c0.7,1.3,1.1,2.7,1.1,4.1c0,1.7-0.3,3.4-1.1,4.6
			c-0.8,1.2-2.1,2-4.2,2c-2.5,0-3.9-0.9-4.6-2.4c-0.8-1.4-1-3.3-1-5.3l3.8-0.4c0,1.1,0,2.2,0.3,3c0.2,0.9,0.7,1.4,1.5,1.4
			c1.1,0,1.6-1.2,1.6-2.9c0-0.9-0.4-1.9-1-2.9c-0.3-0.5-0.6-1-1-1.6c-0.8-1.1-1.6-2.3-2.4-3.6c-0.9-1.3-1.5-2.7-1.9-4.1
			c-0.2-0.7-0.3-1.4-0.3-2.1c0-1.4,0.3-3,1.1-4.1c0.8-1.1,2.1-2,3.9-2c2.3,0,3.7,0.9,4.4,2.3c0.8,1.4,1,3.2,1,4.6L78.2,40z"/>
	</g>
	<path id="XMLID_13_" class="st0" d="M93.1,41.5L93,40.9h-0.2l-0.1,0.7l-1.1,8.3h2.6L93.1,41.5z M86.6,59.3l4-26.2h4.7l4,26.2h-3.7
		l-0.7-5.4h-3.7l-0.7,5.4H86.6z"/>
</g>
<g id="XMLID_1_">
	<path id="XMLID_16_" class="st0" d="M196.3,50.3v3.6c0,1.1-0.3,2-0.6,2.9c-0.3,0.7-0.8,1.4-1.5,1.9c-0.7,0.6-1.7,0.9-3,0.9
		c-1.3,0-2.3-0.3-3-0.9c-0.7-0.5-1.2-1.2-1.5-1.9c-0.4-0.8-0.6-1.8-0.6-2.9V38.4c0-1,0.2-2,0.6-2.8c0.3-0.7,0.8-1.4,1.5-2
		c0.7-0.5,1.7-0.9,3-0.9c1.3,0,2.2,0.4,3,0.9c0.7,0.5,1.2,1.3,1.5,2c0.4,0.8,0.6,1.8,0.6,2.8V42h-3.6v-3.6c0-0.7-0.2-1.2-0.6-1.6
		c-0.2-0.2-0.5-0.3-0.9-0.3c-0.7,0-1,0.5-1.2,1c-0.1,0.3-0.1,0.6-0.2,1v15.5c0,0.8,0.3,1.2,0.6,1.6c0.2,0.2,0.4,0.3,0.8,0.3
		c0.8,0,1.1-0.4,1.3-1c0.1-0.3,0.1-0.6,0.1-1v-3.6H196.3z"/>
</g>
<polygon id="XMLID_17_" class="st0" points="202.2,33 211.1,33 211.1,37 206.1,37 206.1,43.9 209.7,43.9 209.7,48.1 206.1,48.1 
	206.1,55.3 211.1,55.3 211.1,59.3 202.2,59.3 "/>
<polygon id="XMLID_18_" class="st0" points="220.8,45.6 220.5,44.4 220.3,44.4 220.3,59.3 216.8,59.3 216.8,33 220.2,33 223.9,46.7 
	224.3,47.9 224.5,47.9 224.5,33 228,33 228,59.3 224.6,59.3 "/>
<polygon id="XMLID_19_" class="st0" points="233.1,37 233.1,33 244.2,33 244.2,37 240.6,37 240.6,59.3 236.7,59.3 236.7,37 "/>
<g id="XMLID_20_">
	<path id="XMLID_21_" class="st0" d="M253.2,44.6c0.5,0,1.2-0.1,1.8-0.6c0.6-0.5,1-1.5,1-3.3s-0.5-2.9-1-3.4
		c-0.6-0.5-1.3-0.5-1.8-0.5V44.6z M256.2,59.3l-2-11.1h-1v11.1h-3.9V33h3.9c4.6,0,6.6,2.6,6.6,7.6c0,2.6-0.7,5-2.1,6l2.5,12.7H256.2
		z"/>
</g>
<path id="XMLID_24_" class="st0" d="M271.2,41.5l-0.1-0.7h-0.2l-0.1,0.7l-1.1,8.3h2.6L271.2,41.5z M264.7,59.3l4-26.2h4.7l4,26.2
	h-3.7l-0.7-5.4h-3.7l-0.7,5.4H264.7z"/>
<polygon id="XMLID_27_" class="st0" points="282.7,33 286.6,33 286.6,55.7 291.7,55.7 291.7,59.3 282.7,59.3 "/>
<g id="XMLID_28_">
	<path id="XMLID_29_" class="st0" d="M145.8,19.5c-1.3,0-2.5,0.1-3.7,0.3c3.6,0.4,6.6,1.6,8.8,3.2c11.1,2.4,19.4,12.2,19.4,24
		c0,2.8-0.5,5.6-1.4,8.1c0.9,0.2,1.9,0.6,2.7,1.2c1.1-2.9,1.6-6,1.6-9.3C173.2,31.8,160.9,19.5,145.8,19.5"/>
	<path id="XMLID_31_" class="st0" d="M121.2,46.9c0-1.7,0.2-3.3,0.5-4.9c-0.8-1.2-1.5-2.7-1.8-4.2c-1,2.8-1.6,5.9-1.6,9.1
		c0,15.1,12.3,27.4,27.4,27.4c0.7,0,1.4,0,2.1-0.1c-1.9-0.7-3.7-1.7-5.1-3C130.7,69.8,121.2,59.5,121.2,46.9"/>
	<path id="XMLID_32_" class="st0" d="M140.5,35.6c-0.9,0-1.7-0.1-2.5-0.3l2.5-8.2c3.4,0.5,5.2,2,5.2,4.2
		C145.7,31.8,145.6,35.6,140.5,35.6 M138.9,49.3c-2,0-3.7-0.6-4.7-1.6l2.7-8.8c1.9,0.5,3.5,0.8,5.1,0.8c2.1,1.1,2.8,3,2.8,4.4
		C144.8,46.6,142.7,49.3,138.9,49.3 M170.3,59c-0.4-0.5-1.6-1.2-2.5-1.2l-0.1,0l-0.2,0l-0.1,0.3c-2.6,5.4-7.3,8.7-12.1,8.7
		c-4.7,0-7.6-3.3-7.6-8.5c0-6.4,4.5-12.1,9.7-12.1c1.5,0,2.6,0.5,3,1.4c-1.1,0.7-1.8,1.8-1.8,3.2c0,2.1,1.7,3.7,3.7,3.7
		c3,0,4.5-2.8,4.5-5.5c0-4.1-3.4-8.3-10-8.3c-2.2,0-4.3,0.5-6.1,1.3c-0.6-1.4-1.6-2.6-2.9-3.5c2.9-1.5,4.5-4,4.5-7.1
		c0-4.6-4-7.8-10.3-8.7c-1.2-0.2-2.4-0.3-3.7-0.3c-2.3,0-4.6,0.3-6.8,1c-4.4,1.4-8.1,4.3-9,8.8c-0.1,0.7-0.2,1.4-0.2,2.2
		c0,1.2,0.2,2.4,0.6,3.5c0.4,1.3,1.1,2.5,2,3.5l0.3,0.3l4.6-3.7l-0.2-0.4c-0.7-1.1-1-2.5-1-3.8c0-1.5,0.5-5.1,5.2-6.5l-7.3,24h5.4
		c2.2,2.2,5.3,3.3,8.7,3.3c0.1,0,0.3,0,0.4,0c-0.3,1.4-0.4,2.7-0.4,4.1c0,6.1,2.9,10.6,7.7,12.5c1.5,0.6,3.2,0.9,5.1,0.9
		c1.4,0,2.8-0.2,4-0.5c7.1-1.8,11.1-8.2,13-12.2l0.1-0.3L170.3,59L170.3,59z"/>
	<path id="XMLID_36_" class="st0" d="M122.8,25.1H1.7v-2.2h124.6c0,0-1,0.5-2,1.1C123.4,24.6,122.8,25.1,122.8,25.1"/>
</g>
<rect id="XMLID_37_" x="158.8" y="22.9" class="st0" width="139.9" height="2.2"/>
<rect id="XMLID_38_" x="1.7" y="67.1" class="st0" width="128.8" height="2.2"/>
<path id="XMLID_39_" class="st0" d="M298.9,69.4H167c0,0,0.5-0.4,1.2-1.2c0.5-0.5,0.9-1.1,0.9-1.1h129.8V69.4z"/>
<g id="XMLID_40_">
	<path id="XMLID_41_" class="st0" d="M137,10.5c1-0.2,2-0.3,3-0.4c0,0.3,0.1,0.7,0.1,1c-1,0.1-2,0.2-2.9,0.4
		C137.1,11.1,137.1,10.8,137,10.5"/>
	<path id="XMLID_42_" class="st0" d="M118.7,11.2c1-0.7,1.9-1.3,2.9-1.9c0.2,0.3,0.4,0.7,0.6,1c-0.5,0.3-1.1,0.7-1.6,1
		c0.4,0.6,0.8,1.1,1.1,1.7c0.4-0.2,0.7-0.5,1.1-0.7c0.2,0.4,0.4,0.7,0.7,1.1c-0.4,0.2-0.7,0.5-1.1,0.7c0.4,0.6,0.8,1.2,1.2,1.8
		c0.5-0.3,0.9-0.6,1.4-0.9c0.2,0.3,0.4,0.7,0.6,1c-0.8,0.5-1.6,1-2.4,1.6C121.7,15.4,120.2,13.3,118.7,11.2"/>
	<path id="XMLID_43_" class="st0" d="M127,8.8c-0.1-0.2-0.2-0.5-0.4-0.6C126.4,8,126.2,7.9,126,8c-0.3,0.2-0.3,0.5-0.1,0.9
		c0.1,0.2,0.4,0.4,0.7,0.6c0.3,0.2,0.7,0.3,1.1,0.5c0.5,0.2,0.9,0.5,1.3,0.7c0.4,0.3,0.7,0.6,0.8,1c0.2,0.5,0.3,1,0.2,1.4
		c-0.1,0.4-0.4,0.8-1,1.1c-0.7,0.3-1.2,0.3-1.6,0c-0.4-0.3-0.7-0.7-1-1.2c0.4-0.2,0.7-0.5,1.1-0.7c0.1,0.3,0.3,0.6,0.5,0.8
		c0.2,0.2,0.4,0.3,0.6,0.2c0.3-0.2,0.3-0.5,0.1-1c-0.1-0.2-0.4-0.4-0.7-0.6c-0.2-0.1-0.3-0.2-0.5-0.3c-0.4-0.2-0.8-0.4-1.2-0.6
		c-0.4-0.2-0.8-0.5-1.2-0.8c-0.2-0.1-0.3-0.3-0.4-0.5c-0.2-0.4-0.3-0.8-0.2-1.3c0.1-0.4,0.5-0.9,1.1-1.2c0.8-0.4,1.4-0.3,1.8-0.1
		c0.4,0.3,0.7,0.7,0.9,1.1C127.8,8.3,127.4,8.5,127,8.8"/>
	<path id="XMLID_44_" class="st0" d="M129.9,6.7c-0.1-0.4-0.3-0.7-0.4-1.1c1.4-0.5,2.7-0.9,4.1-1.2c0.1,0.4,0.2,0.8,0.3,1.1
		c-0.4,0.1-0.9,0.2-1.3,0.3c0.6,2.1,1.1,4.2,1.7,6.3c-0.4,0.1-0.8,0.2-1.2,0.3c-0.6-2.1-1.3-4.2-1.9-6.3
		C130.7,6.4,130.3,6.5,129.9,6.7"/>
	<path id="XMLID_45_" class="st0" d="M137.9,8c0.4-0.1,0.7-0.1,0.8-0.4c0-0.2,0.1-0.4,0-0.7c0-0.3,0-0.3-0.1-0.8
		c-0.1-0.5-0.1-0.5-0.1-0.7c0-0.3-0.1-0.5-0.2-0.6c-0.2-0.3-0.5-0.3-1-0.2C137.6,5.7,137.8,6.9,137.9,8 M136.8,9.1
		c-0.3-1.8-0.6-3.5-0.9-5.3c0.4-0.1,0.8-0.1,1.1-0.2c1.4-0.2,2.1-0.1,2.5,0.3c0.4,0.4,0.5,0.8,0.6,2c0.1,1.2,0.1,1.6-0.2,2.1
		c-0.3,0.5-0.9,0.7-2.1,0.9C137.4,9,137.1,9.1,136.8,9.1"/>
	<path id="XMLID_48_" class="st0" d="M145.4,5.8c0-0.2,0-0.4,0-0.5c0-0.5,0.2-1,0.5-1.4c0.3-0.3,0.8-0.6,1.6-0.5
		c0.7,0.1,1.2,0.4,1.5,0.8c0.2,0.4,0.3,0.9,0.2,1.4c-0.1,0.8-0.6,1.6-1.2,2.5c-0.6,0.8-1.1,1.5-1.5,2c0.7,0.1,1.3,0.2,1.9,0.3
		c-0.1,0.4-0.1,0.7-0.2,1.1c-1.1-0.2-2.2-0.3-3.2-0.4c0-0.4,0-0.7,0.1-1.1c0.4-0.5,0.8-1,1.2-1.5c0.3-0.4,0.6-0.9,0.9-1.4
		c0.3-0.5,0.5-1,0.6-1.5c0-0.2,0-0.4,0-0.6c0-0.2-0.1-0.3-0.4-0.4c-0.2,0-0.3,0.1-0.4,0.2c-0.1,0.2-0.1,0.4-0.2,0.7
		c0,0.2,0,0.4-0.1,0.5C146.4,5.9,145.9,5.8,145.4,5.8"/>
	<path id="XMLID_49_" class="st0" d="M153.9,6.4c0.1-0.2,0-0.4,0-0.5c0-0.1-0.1-0.1-0.3-0.2c-0.2-0.1-0.4,0-0.5,0.2
		C153.1,5.9,153,6,153,6.1c-0.4,1.5-0.8,2.9-1.1,4.4c-0.1,0.2,0,0.4,0,0.5c0,0.1,0.1,0.1,0.2,0.1c0.2,0.1,0.3,0,0.4-0.2
		c0.1-0.1,0.1-0.1,0.1-0.3C153.1,9.3,153.5,7.8,153.9,6.4 M153.9,11.1c-0.1,0.3-0.3,0.5-0.5,0.7c-0.2,0.2-0.4,0.3-0.6,0.4
		c-0.3,0.1-0.6,0.1-1,0c-0.4-0.1-0.7-0.3-0.8-0.5c-0.2-0.2-0.3-0.4-0.3-0.7c-0.1-0.3-0.1-0.6,0-0.9c0.3-1.5,0.7-3,1-4.4
		c0.1-0.3,0.2-0.6,0.4-0.8c0.2-0.2,0.4-0.3,0.7-0.4c0.3-0.1,0.7-0.1,1.2,0c0.5,0.1,0.8,0.3,1,0.6c0.2,0.2,0.3,0.5,0.4,0.7
		c0.1,0.3,0.1,0.6,0,0.9C154.8,8.2,154.4,9.7,153.9,11.1"/>
	<path id="XMLID_52_" class="st0" d="M159.8,8.6c0.1-0.2,0.1-0.3,0-0.5c0-0.1-0.1-0.1-0.2-0.2c-0.2-0.1-0.4,0-0.5,0.1
		c-0.1,0.1-0.1,0.1-0.2,0.2c-0.6,1.4-1.2,2.8-1.8,4.2c-0.1,0.2-0.1,0.4,0,0.5c0,0.1,0.1,0.1,0.2,0.2c0.2,0.1,0.4,0,0.5-0.1
		c0.1-0.1,0.1-0.1,0.2-0.2C158.5,11.3,159.1,9.9,159.8,8.6 M159,13.2c-0.2,0.3-0.3,0.5-0.6,0.7c-0.2,0.1-0.4,0.2-0.7,0.3
		c-0.3,0.1-0.6,0-1-0.2c-0.4-0.2-0.6-0.4-0.8-0.6c-0.1-0.2-0.2-0.5-0.2-0.7c0-0.3,0-0.6,0.1-0.9c0.6-1.4,1.1-2.8,1.7-4.2
		c0.1-0.3,0.3-0.5,0.5-0.7c0.2-0.2,0.4-0.3,0.8-0.3c0.3,0,0.7,0,1.2,0.2c0.5,0.2,0.8,0.5,0.9,0.7c0.2,0.3,0.3,0.5,0.3,0.8
		c0,0.3,0,0.6-0.2,0.9C160.4,10.5,159.7,11.9,159,13.2"/>
	<path id="XMLID_55_" class="st0" d="M161.8,15.2c-0.1,0.1-0.1,0.3,0.1,0.5c0.2,0.2,0.5,0,0.5-0.1c0.4-0.6,0.9-1.3,1.3-1.9
		c0.1-0.1,0.1-0.4-0.2-0.5c-0.3-0.2-0.5-0.1-0.5,0C162.7,13.9,162.2,14.6,161.8,15.2 M163.8,16.2c-0.1,0.1-0.4,0.5-0.8,0.6
		c-0.4,0.2-0.9,0.2-1.6-0.2c-0.6-0.4-0.8-0.9-0.8-1.3c0-0.4,0.2-0.8,0.3-1c0.7-1.3,1.5-2.5,2.2-3.8c0.1-0.2,0.4-0.6,0.8-0.8
		c0.4-0.2,1-0.2,1.8,0.3c0.8,0.5,1,1.1,1,1.6c0,0.5-0.3,0.9-0.4,1.1c-0.1,0.1-0.2,0.3-0.3,0.4c-0.4-0.3-0.8-0.6-1.2-0.8
		c0.3-0.4,0.5-0.7,0.5-0.9c0.1-0.2,0-0.3-0.2-0.4c-0.2-0.1-0.3-0.1-0.4,0c-0.1,0.1-0.3,0.2-0.4,0.5c-0.2,0.4-0.5,0.8-0.7,1.2
		c0.3,0,0.5,0.1,0.7,0.2c0.6,0.4,0.8,0.9,0.7,1.3c0,0.4-0.3,0.8-0.4,0.9C164.4,15.3,164.1,15.7,163.8,16.2"/>
</g>
<g id="XMLID_58_">
	<path id="XMLID_59_" class="st0" d="M194.2,80.3c0.4,0,0.6-0.1,0.8-0.3c0.1-0.2,0.2-0.5,0.2-1c0-0.5,0-0.8-0.2-1
		c-0.1-0.2-0.4-0.3-0.8-0.3V80.3z M192.9,76.4h1.3c0.5,0,1.1,0.1,1.5,0.5c0.4,0.4,0.7,1,0.7,2c0,1-0.3,1.6-0.7,2
		c-0.4,0.4-1,0.6-1.5,0.6V85h-1.3V76.4z"/>
	<polygon id="XMLID_62_" class="st0" points="198.3,76.4 198.3,85 201.3,85 201.3,83.8 199.6,83.8 199.6,76.4 	"/>
	<path id="XMLID_63_" class="st0" d="M204.9,79.2l0-0.2h0.1l0,0.2l0.4,2.7h-0.9L204.9,79.2z M204.2,76.4l-1.3,8.5h1.2l0.2-1.7h1.2
		l0.2,1.7h1.2l-1.3-8.5H204.2z"/>
	<polygon id="XMLID_66_" class="st0" points="211.5,76.4 211.5,81.3 211.4,81.3 211.3,80.9 210.1,76.4 209,76.4 209,85 210.1,85 
		210.1,80.1 210.2,80.1 210.3,80.5 211.5,85 212.6,85 212.6,76.4 	"/>
	<polygon id="XMLID_67_" class="st0" points="214.5,76.4 214.5,77.7 215.7,77.7 215.7,85 216.9,85 216.9,77.7 218.1,77.7 
		218.1,76.4 	"/>
	<path id="XMLID_68_" class="st0" d="M221.3,79.2l0-0.2h0.1l0,0.2l0.4,2.7h-0.9L221.3,79.2z M220.6,76.4l-1.3,8.5h1.2l0.2-1.7h1.2
		l0.2,1.7h1.2l-1.3-8.5H220.6z"/>
	<polygon id="XMLID_71_" class="st0" points="224.5,76.4 224.5,77.7 225.7,77.7 225.7,85 227,85 227,77.7 228.2,77.7 228.2,76.4 	
		"/>
	<rect id="XMLID_72_" x="230" y="76.4" class="st0" width="1.3" height="8.5"/>
	<g id="XMLID_73_">
		<path id="XMLID_74_" class="st0" d="M235.4,78.2c0-0.2,0-0.4-0.2-0.5c-0.1-0.1-0.2-0.1-0.3-0.1c-0.2,0-0.3,0.2-0.4,0.3
			c0,0.1,0,0.2,0,0.3v5c0,0.2,0.1,0.4,0.2,0.5c0.1,0.1,0.1,0.1,0.2,0.1c0.2,0,0.3-0.1,0.4-0.3c0-0.1,0-0.2,0-0.3V78.2z M236.7,83.2
			c0,0.3-0.1,0.7-0.2,0.9c-0.1,0.2-0.3,0.5-0.5,0.6c-0.2,0.2-0.5,0.3-1,0.3c-0.4,0-0.7-0.1-1-0.3c-0.2-0.2-0.4-0.4-0.5-0.6
			c-0.1-0.3-0.2-0.6-0.2-0.9v-5c0-0.3,0.1-0.7,0.2-0.9c0.1-0.2,0.3-0.5,0.5-0.6c0.2-0.2,0.6-0.3,1-0.3c0.4,0,0.7,0.1,1,0.3
			c0.2,0.2,0.4,0.4,0.5,0.6c0.1,0.3,0.2,0.6,0.2,0.9V83.2z"/>
	</g>
	<polygon id="XMLID_77_" class="st0" points="241.3,76.4 241.3,81.3 241.2,81.3 241.1,80.9 239.9,76.4 238.7,76.4 238.7,85 
		239.9,85 239.9,80.1 240,80.1 240.1,80.5 241.3,85 242.4,85 242.4,76.4 	"/>
	<g id="XMLID_78_">
		<path id="XMLID_79_" class="st0" d="M249.5,79.5v-1.3c0-0.2,0-0.4-0.2-0.5c-0.1-0.1-0.2-0.1-0.3-0.1c-0.2,0-0.3,0.2-0.4,0.3
			c0,0.1,0,0.2,0,0.3v5.1c0,0.2,0.1,0.4,0.2,0.5c0.1,0.1,0.1,0.1,0.2,0.1c0.2,0,0.3-0.1,0.4-0.3c0-0.1,0-0.2,0-0.3v-1.5H249v-1.1
			h1.8V85H250l-0.2-0.4c-0.2,0.3-0.6,0.5-1,0.5c-0.4,0-0.7-0.1-0.9-0.3c-0.2-0.2-0.3-0.4-0.4-0.6c-0.1-0.3-0.2-0.6-0.1-0.9v-5
			c0-0.3,0.1-0.7,0.2-0.9c0.1-0.2,0.3-0.5,0.5-0.6c0.2-0.2,0.6-0.3,1-0.3c0.4,0,0.7,0.1,1,0.3c0.2,0.2,0.4,0.4,0.5,0.6
			c0.1,0.3,0.2,0.6,0.2,0.9v1.3H249.5z"/>
		<path id="XMLID_80_" class="st0" d="M254.1,80.2c0.2,0,0.4,0,0.6-0.2c0.2-0.2,0.3-0.5,0.3-1.1c0-0.6-0.2-0.9-0.3-1.1
			c-0.2-0.2-0.4-0.2-0.6-0.2V80.2z M255.1,85l-0.7-3.6h-0.3V85h-1.3v-8.5h1.3c1.5,0,2.1,0.8,2.1,2.5c0,0.8-0.2,1.6-0.7,1.9l0.8,4.1
			H255.1z"/>
		<path id="XMLID_83_" class="st0" d="M260.3,78.2c0-0.2,0-0.4-0.2-0.5c-0.1-0.1-0.2-0.1-0.3-0.1c-0.2,0-0.3,0.2-0.4,0.3
			c0,0.1,0,0.2,0,0.3v5c0,0.2,0.1,0.4,0.2,0.5c0.1,0.1,0.1,0.1,0.2,0.1c0.2,0,0.3-0.1,0.4-0.3c0-0.1,0-0.2,0-0.3V78.2z M261.5,83.2
			c0,0.3-0.1,0.7-0.2,0.9c-0.1,0.2-0.3,0.5-0.5,0.6c-0.2,0.2-0.5,0.3-1,0.3c-0.4,0-0.7-0.1-1-0.3c-0.2-0.2-0.4-0.4-0.5-0.6
			c-0.1-0.3-0.2-0.6-0.2-0.9v-5c0-0.3,0.1-0.7,0.2-0.9c0.1-0.2,0.3-0.5,0.5-0.6c0.2-0.2,0.6-0.3,1-0.3c0.4,0,0.7,0.1,1,0.3
			c0.2,0.2,0.4,0.4,0.5,0.6c0.1,0.3,0.2,0.6,0.2,0.9V83.2z"/>
	</g>
	<polygon id="XMLID_86_" class="st0" points="267.8,76.4 267.3,80.9 267.2,81.2 267.1,81.2 267.1,80.9 266.6,76.4 265.7,76.4 
		265.1,80.9 265.1,81.2 265,81.2 265,80.9 264.5,76.4 263.3,76.4 264.5,85 265.4,85 266,80.9 266.1,80.4 266.1,80.4 266.2,80.9 
		266.8,85 267.8,85 268.9,76.4 	"/>
	<polygon id="XMLID_87_" class="st0" points="273.3,76.4 273.3,81.3 273.3,81.3 273.2,80.9 272,76.4 270.8,76.4 270.8,85 272,85 
		272,80.1 272.1,80.1 272.2,80.5 273.4,85 274.5,85 274.5,76.4 	"/>
</g>
<g id="XMLID_88_">
	<path id="XMLID_89_" class="st0" d="M24,79.2l0-0.2h0.1l0,0.2l0.4,2.7h-0.9L24,79.2z M23.3,76.4L22,85h1.2l0.2-1.7h1.2l0.2,1.7h1.2
		l-1.3-8.5H23.3z"/>
	<g id="XMLID_92_">
		<path id="XMLID_93_" class="st0" d="M31.2,76.4v6.8c0,0.3-0.1,0.7-0.2,0.9c-0.1,0.2-0.3,0.5-0.5,0.6c-0.2,0.2-0.5,0.3-1,0.3
			c-0.4,0-0.7-0.1-1-0.3c-0.2-0.2-0.4-0.4-0.5-0.6c-0.1-0.3-0.2-0.6-0.2-0.9v-6.8h1.3v6.8c0,0.2,0.1,0.4,0.2,0.5
			c0.1,0.1,0.1,0.1,0.2,0.1c0.2,0,0.3-0.1,0.4-0.3c0-0.1,0-0.2,0-0.3v-6.8H31.2z"/>
		<path id="XMLID_94_" class="st0" d="M35.5,78.7c0-0.3,0-0.6-0.1-0.8c-0.1-0.2-0.2-0.4-0.4-0.4c-0.3,0-0.4,0.3-0.4,0.8
			c0,0.3,0.1,0.6,0.3,0.9c0.2,0.3,0.4,0.7,0.7,1c0.3,0.4,0.6,0.9,0.8,1.3c0.2,0.4,0.4,0.9,0.4,1.3c0,0.6-0.1,1.1-0.4,1.5
			c-0.3,0.4-0.7,0.7-1.4,0.7c-0.8,0-1.3-0.3-1.5-0.8c-0.3-0.5-0.3-1.1-0.3-1.7l1.2-0.1c0,0.4,0,0.7,0.1,1c0.1,0.3,0.2,0.5,0.5,0.5
			c0.4,0,0.5-0.4,0.5-0.9c0-0.3-0.1-0.6-0.3-0.9c-0.1-0.2-0.2-0.3-0.3-0.5c-0.2-0.3-0.5-0.7-0.8-1.2c-0.3-0.4-0.5-0.9-0.6-1.3
			c-0.1-0.2-0.1-0.5-0.1-0.7c0-0.5,0.1-1,0.4-1.3c0.3-0.4,0.7-0.6,1.3-0.7c0.8,0,1.2,0.3,1.4,0.8c0.2,0.5,0.3,1,0.3,1.5L35.5,78.7z"
			/>
	</g>
	<polygon id="XMLID_95_" class="st0" points="38.5,76.4 38.5,77.7 39.6,77.7 39.6,85 40.9,85 40.9,77.7 42.1,77.7 42.1,76.4 	"/>
	<g id="XMLID_96_">
		<path id="XMLID_97_" class="st0" d="M45.2,80.2c0.2,0,0.4,0,0.6-0.2c0.2-0.2,0.3-0.5,0.3-1.1c0-0.6-0.2-0.9-0.3-1.1
			c-0.2-0.2-0.4-0.2-0.6-0.2V80.2z M46.2,85l-0.7-3.6h-0.3V85h-1.3v-8.5h1.3c1.5,0,2.1,0.8,2.1,2.5c0,0.8-0.2,1.6-0.7,1.9l0.8,4.1
			H46.2z"/>
	</g>
	<path id="XMLID_100_" class="st0" d="M51.2,79.2l0-0.2h0.1l0,0.2l0.4,2.7h-0.9L51.2,79.2z M50.5,76.4L49.2,85h1.2l0.2-1.7h1.2
		l0.2,1.7h1.2L52,76.4H50.5z"/>
	<polygon id="XMLID_103_" class="st0" points="55.2,76.4 55.2,85 58.2,85 58.2,83.8 56.5,83.8 56.5,76.4 	"/>
	<rect id="XMLID_104_" x="60" y="76.4" class="st0" width="1.3" height="8.5"/>
	<path id="XMLID_105_" class="st0" d="M65.2,79.2l0-0.2h0.1l0,0.2l0.4,2.7h-0.9L65.2,79.2z M64.5,76.4L63.2,85h1.2l0.2-1.7h1.2
		l0.2,1.7h1.2L66,76.4H64.5z"/>
	<polygon id="XMLID_108_" class="st0" points="71.7,76.4 71.7,81.3 71.7,81.3 71.5,80.9 70.3,76.4 69.2,76.4 69.2,85 70.4,85 
		70.4,80.1 70.4,80.1 70.5,80.5 71.8,85 72.9,85 72.9,76.4 	"/>
	<g id="XMLID_109_">
		<path id="XMLID_110_" class="st0" d="M79.9,78.2c0-0.2,0-0.4-0.2-0.5c-0.1-0.1-0.2-0.1-0.3-0.1c-0.2,0-0.3,0.2-0.4,0.3
			c0,0.1,0,0.2,0,0.3v5c0,0.2,0.1,0.4,0.2,0.5c0.1,0.1,0.1,0.1,0.2,0.1c0.2,0,0.3-0.1,0.4-0.3c0-0.1,0-0.2,0-0.3V78.2z M81.2,83.2
			c0,0.3-0.1,0.7-0.2,0.9c-0.1,0.2-0.3,0.5-0.5,0.6c-0.2,0.2-0.5,0.3-1,0.3c-0.4,0-0.7-0.1-1-0.3c-0.2-0.2-0.4-0.4-0.5-0.6
			c-0.1-0.3-0.2-0.6-0.2-0.9v-5c0-0.3,0.1-0.7,0.2-0.9c0.1-0.2,0.3-0.5,0.5-0.6c0.2-0.2,0.6-0.3,1-0.3c0.4,0,0.7,0.1,1,0.3
			c0.2,0.2,0.4,0.4,0.5,0.6c0.1,0.3,0.2,0.6,0.2,0.9V83.2z"/>
	</g>
	<polygon id="XMLID_113_" class="st0" points="87.4,76.4 86.9,80.9 86.9,81.2 86.8,81.2 86.8,80.9 86.2,76.4 85.3,76.4 84.8,80.9 
		84.7,81.2 84.7,81.2 84.6,80.9 84.1,76.4 83,76.4 84.1,85 85.1,85 85.7,80.9 85.7,80.4 85.8,80.4 85.9,80.9 86.4,85 87.4,85 
		88.6,76.4 	"/>
	<polygon id="XMLID_114_" class="st0" points="93,76.4 93,81.3 92.9,81.3 92.8,80.9 91.6,76.4 90.5,76.4 90.5,85 91.6,85 91.6,80.1 
		91.7,80.1 91.8,80.5 93,85 94.2,85 94.2,76.4 	"/>
	<polygon id="XMLID_115_" class="st0" points="96.3,76.4 96.3,85 99.1,85 99.1,83.7 97.5,83.7 97.5,81.3 98.7,81.3 98.7,80 97.5,80 
		97.5,77.7 99.1,77.7 99.1,76.4 	"/>
	<g id="XMLID_116_">
		<path id="XMLID_117_" class="st0" d="M102.4,83.7c0.4,0,0.7,0,0.8-0.5c0.1-0.2,0.1-0.5,0.1-0.9c0-0.4,0-1,0-1.7c0-0.7,0-1.2,0-1.7
			c0-0.4-0.1-0.7-0.1-0.9c-0.1-0.4-0.4-0.5-0.8-0.5V83.7z M101.1,85v-8.5h1c1.2,0,1.8,0.2,2.1,0.9c0.3,0.7,0.4,1.7,0.4,3.4
			c0,1.7,0,2.7-0.4,3.4c-0.3,0.7-1,0.9-2.1,0.9H101.1z"/>
	</g>
</g>
</svg>
